<?xml version="1.0" encoding="UTF-8"?>
<svg width="62px" height="58px" viewBox="0 0 62 58" version="1.1" xmlns="http://www.w3.org/2000/svg" xmlns:xlink="http://www.w3.org/1999/xlink">
    <title>Slice</title>
    <g id="Page-1" stroke="none" stroke-width="1" fill="none" fill-rule="evenodd">
        <g id="icon-2" transform="translate(9.853773, 1.751953)">
            <path d="M13.5452692,13.5664751 C13.5452692,12.0119751 20.2908692,11.8321751 28.1152692,11.7898751 C36.4416692,11.7528751 41.8680692,12.0753751 41.8680692,13.5082751 C41.8680692,13.5082751 41.8680692,13.5082751 41.8680692,13.6034751 C41.8680692,13.6034751 42.3433692,40.1461751 41.4674692,44.1962751 C40.9333692,46.7236751 39.8651692,50.4248751 36.1586692,53.3011751 C36.1586692,53.3011751 35.5550692,54.2898751 27.4796692,54.2898751 C19.4042692,54.2898751 18.6084692,53.3011751 18.6084692,53.3011751 C16.6648692,51.8236751 15.2016692,49.8143751 14.3997692,47.5220751 L14.3624692,47.5220751 C13.4330692,46.9510751 9.55556922,44.6351751 8.60496922,43.9900751 C7.02406922,42.8484751 5.62056922,41.4839751 4.43906922,39.9399751 C3.09846922,38.5017751 0.791169221,35.1812751 0.166269221,28.6989751 C-0.485230779,21.8781751 0.823269221,19.4671751 3.29606922,17.6059751 C4.44436922,16.7388751 6.16946922,16.2947751 8.41796922,16.2947751 C9.82036922,16.3074751 11.2185692,16.4490751 12.5945692,16.7176751 L12.7441692,16.7176751 C12.7441692,16.7176751 13.4170692,16.9186751 13.4170692,16.0884751 C13.4141692,16.0709751 13.4141692,16.0531751 13.4170692,16.0356751 C13.4864692,14.3277751 13.5399692,13.5399751 13.5399692,13.5399751 L13.5452692,13.5664751 Z M1.79526922,28.5138751 C2.36676922,34.4939751 4.43366922,37.5024751 5.61406922,38.7714751 L5.68876922,38.8560751 C7.57946922,40.8863751 9.08556922,42.3562751 10.7252692,43.3925751 C11.1096692,43.6512751 11.5739692,43.7670751 12.0361692,43.7196751 C12.4983692,43.6722751 12.9288692,43.4646751 13.2514692,43.1335751 C13.2765692,43.0994751 13.2996692,43.0641751 13.3209692,43.0277751 C12.9470692,38.5440751 13.0325692,26.1081751 13.3209692,18.8432751 C13.0917692,18.5652751 12.7697692,18.3776751 12.4129692,18.3144751 C8.61026922,17.5901751 5.93446922,17.7223751 4.49246922,18.7004751 C2.42546922,20.1122751 1.18646922,22.3117751 1.77926922,28.5138751 L1.79526922,28.5138751 Z" id="Shape" fill="#00B1B0" fill-rule="nonzero"></path>
            <path d="M27.7311692,14.8734751 C20.7197692,14.8734751 15.0358692,14.3692751 15.0358692,13.7472751 C15.0358692,13.1252751 20.7197692,12.6210751 27.7311692,12.6210751 C34.7425692,12.6210751 40.4264692,13.1252751 40.4264692,13.7472751 C40.4264692,14.3692751 34.7425692,14.8734751 27.7311692,14.8734751 Z" id="Path" fill="#C6EAFB" fill-rule="nonzero"></path>
            <path d="M27.6969692,8.36517508 C27.6969692,8.36517508 32.4577692,6.03607508 32.4402179,2.96530508 C32.4232692,0.0466750823 29.0369692,-0.751954918 27.6398692,0.722905082 C26.2427692,-0.751944918 22.8563692,0.0466750823 22.8395211,2.96530508 C22.8218692,6.03607508 27.6969692,8.36517508 27.6969692,8.36517508 Z" id="Path" fill="#183863"></path>
        </g>
    </g>
</svg>