<?xml version="1.0" encoding="UTF-8"?>
<svg width="62px" height="58px" viewBox="0 0 62 58" version="1.1" xmlns="http://www.w3.org/2000/svg" xmlns:xlink="http://www.w3.org/1999/xlink">
    <title>Slice</title>
    <g id="Page-1" stroke="none" stroke-width="1" fill="none" fill-rule="evenodd">
        <g id="icon-3" transform="translate(8.920894, 7.042966)">
            <path d="M33.5378478,11.3056622 C23.2628478,4.76200222 18.4816478,18.7805622 9.88164782,12.4790622 C8.11284782,11.1876622 8.30034782,12.0941622 7.62534782,14.6643622 C7.53164782,15.0555622 5.56288782,14.8258622 5.87538782,14.1863622 C7.46914782,10.8772622 13.8253478,3.94249222 23.7691478,5.74914222 C13.7441478,2.59527222 6.91914782,11.2435622 6.88784782,11.2000622 C6.94414782,-2.27210778 26.6378478,-5.16521778 33.5378478,11.3056622 Z" id="Path" fill="#00B1B0"></path>
            <path d="M4.23083782,19.7245622 C3.63708782,31.8247622 18.2495478,28.9564622 17.0683478,39.4859622 C16.8308478,41.6650622 17.5183478,41.0255622 20.0870478,40.3178622 C20.4620478,40.2122622 21.2745478,42.0251622 20.5620478,42.0748622 C16.8558478,42.3541622 7.64334782,40.3488622 4.26208782,30.8934622 C6.50583782,41.0814622 17.4683478,42.6459622 17.4495478,42.6770622 C5.67458782,49.3945622 -6.70666218,33.8983622 4.23083782,19.7245622 Z" id="Path" fill="#183863"></path>
            <path d="M25.8877478,40.2179622 C36.7377478,34.6676622 26.9064478,23.5422622 36.6814478,19.2895622 C38.7189478,18.4141622 37.8064478,18.1347622 35.9127478,16.2784622 C35.6252478,15.9928622 36.8127478,14.4034622 37.2127478,14.9870622 C39.3127478,18.0416622 42.1564478,26.9630622 35.6189478,34.6056622 C43.3814478,27.5714622 39.2689478,17.3773622 39.2939478,17.3773622 C51.0377478,24.1320622 43.7002478,42.5585622 25.8877478,40.2179622 Z" id="Path" fill="#C6EAFB"></path>
        </g>
    </g>
</svg>