<?xml version="1.0" encoding="UTF-8"?>
<svg width="62px" height="58px" viewBox="0 0 62 58" version="1.1" xmlns="http://www.w3.org/2000/svg" xmlns:xlink="http://www.w3.org/1999/xlink">
    <title>Slice</title>
    <g id="Page-1" stroke="none" stroke-width="1" fill="none" fill-rule="evenodd">
        <g id="icon-1" transform="translate(0.000000, -0.000000)" fill-rule="nonzero">
            <polygon id="Path" fill="#00ADA8" points="7.553712 20.264428 7.969562 20.228528 12.000142 22.270028 11.888142 22.963828"></polygon>
            <polygon id="Path" fill="#003764" points="52.081542 14.665028 53.716942 13.751928 42.840842 23.253728 43.720542 21.307928"></polygon>
            <polygon id="Path" fill="#003764" points="60.122542 47.005428 61.490042 47.910528 44.704142 42.041228 46.151542 41.646528"></polygon>
            <polygon id="Path" fill="#00ADA8" points="38.002442 46.033228 44.020242 52.137728 43.176542 51.810828 37.474642 46.376128"></polygon>
            <polygon id="Path" fill="#00ADA8" points="23.647842 8.492948 22.572242 0 23.044142 0.769548 24.279642 8.540798"></polygon>
            <polygon id="Path" fill="#C9EBFC" points="0 47.830828 0.635772 47.188828 14.662742 41.742228 17.065842 41.941528"></polygon>
            <path d="M12.479442,11.595728 C12.119542,10.798328 11.903642,10.638828 11.043942,10.523128 C11.843642,10.168328 11.999642,9.952928 12.123542,9.095708 C12.479442,9.893128 12.699342,10.048628 13.555042,10.172228 C12.755342,10.519128 12.599342,10.742428 12.479442,11.595728 Z" id="Path" fill="#C9EBFC"></path>
            <path d="M56.963742,40.244128 C56.607842,39.446728 56.391942,39.291228 55.532242,39.171628 C56.331942,38.816728 56.487842,38.601428 56.611842,37.744128 C56.963742,38.541628 57.183642,38.697128 58.043342,38.820728 C57.243642,39.167628 57.087642,39.390928 56.963742,40.244128 Z" id="Path" fill="#C9EBFC"></path>
            <path d="M11.999342,50.283028 C11.771442,49.485528 11.599542,49.314128 10.799842,49.086828 C11.599542,48.855528 11.779442,48.688128 11.999342,47.890628 C12.223342,48.688128 12.399242,48.859528 13.198942,49.086828 C12.399242,49.314128 12.219342,49.485528 11.999342,50.283028 Z" id="Path" fill="#00ADA8"></path>
            <path d="M42.444942,15.463228 C42.221042,14.701628 42.045042,14.518228 41.277342,14.302928 C42.049042,14.083628 42.221042,13.904128 42.444942,13.142528 C42.664842,13.908128 42.844742,14.083628 43.608542,14.302928 C42.844742,14.518228 42.664842,14.701628 42.444942,15.463228 Z" id="Path" fill="#003764"></path>
            <polygon id="Path" fill="#C9EBFC" points="53.868642 26.104028 53.084942 25.836928 59.758542 23.771528 60.490342 24.692528"></polygon>
            <path d="M30.740842,8.504958 C28.518642,10.903428 26.973442,13.846228 26.262442,17.033828 C25.730842,19.581328 25.828342,22.219628 26.546342,24.721328 C26.946242,25.989228 27.693942,27.655928 27.693942,27.655928 C27.789942,29.027628 26.406442,25.797928 25.842642,24.745228 C25.551842,24.182828 25.331642,23.586928 25.186842,22.970928 C24.982942,21.507528 23.315542,19.956528 23.315542,19.956528 C21.516142,18.174128 18.277342,13.301728 18.277342,13.301728 C18.989042,16.802528 24.886942,24.246828 24.886942,24.246828 C25.345242,25.493428 25.949242,26.681828 26.686342,27.787528 C28.125842,30.977428 28.849542,40.108328 28.961542,41.320428 C28.971442,41.352928 28.971442,41.387628 28.961542,41.420128 C28.895542,42.016128 28.922542,42.618628 29.041442,43.206428 C29.757242,45.622728 32.696142,57.492928 32.696142,57.492928 C32.839542,57.578328 32.998742,57.633728 33.164242,57.655828 C33.329742,57.677928 33.497942,57.6666936 33.658842,57.621528 C33.819642,57.576728 33.969642,57.499828 34.099742,57.395528 C34.229842,57.291128 34.337242,57.161528 34.415542,57.014428 L30.660942,42.831628 C30.650942,42.791028 30.650942,42.748628 30.660942,42.708028 C31.164742,41.021428 28.793542,29.549928 28.793542,29.549928 C28.557942,28.225828 28.605642,26.867028 28.933542,25.562628 C30.101142,19.501928 38.446142,2.591798 38.446142,2.591798 C38.016742,2.761758 37.599842,2.961618 37.198542,3.189888 C35.163242,4.346208 33.539842,5.582268 30.740842,8.504958 Z" id="Path" fill="#00ADA8"></path>
            <path d="M24.951342,22.080728 L24.179642,21.024128 C23.816342,20.552428 23.415142,20.111028 22.980042,19.704328 C21.562242,18.162128 20.316742,16.470828 19.265342,14.660328 C18.960442,14.187428 18.625242,13.734528 18.261742,13.304728 C18.261742,13.304728 18.601642,13.898828 19.061442,14.656428 C19.521242,15.413928 22.132342,19.728228 23.383842,20.932428 C24.635442,22.136528 25.163242,22.726728 25.163242,22.726728 C25.136142,22.499528 25.064042,22.279928 24.951342,22.080728 Z" id="Path" fill="#C9EBFC"></path>
            <path d="M6.150042,29.167428 C16.366342,22.078028 26.842642,32.456928 27.442442,33.760828 C27.442442,33.760828 29.993442,36.707428 29.841542,39.390828 C29.841542,39.390828 31.145042,41.699528 28.889842,41.448328 C21.744442,40.650828 13.223542,35.602928 13.175542,35.371628 C13.175542,35.371628 6.681852,31.320628 6.465932,31.093328 C6.157582,30.852328 5.781662,30.712928 5.390312,30.694528 C5.390312,30.694528 4.950472,30.670628 4.938472,30.331728 C5.307202,29.908828 5.712632,29.519228 6.150042,29.167428 Z" id="Path" fill="#C9EBFC"></path>
            <path d="M28.909442,41.467328 C21.763942,40.669928 13.243042,35.626028 13.195042,35.394728 C13.195042,35.394728 6.701382,31.339628 6.485462,31.112328 C6.175962,30.873428 5.800722,30.734328 5.409842,30.713628 C5.409842,30.713628 4.966002,30.693728 4.958012,30.350828 C5.324352,29.937128 5.725682,29.555528 6.157582,29.210428 C7.884452,27.960528 9.888642,27.145228 11.999442,26.834028 C13.838842,27.089128 15.846142,27.587628 17.173642,28.620328 C19.600742,30.510228 19.800642,33.959328 21.939942,36.076528 C24.011142,38.130028 27.289942,38.177828 29.897042,39.457728 C30.088942,39.832628 30.936642,41.674728 28.909442,41.467328 Z" id="Path" fill="#00ADA8"></path>
            <path d="M30.544842,40.866428 C30.544842,40.866428 29.609142,36.584128 30.652742,34.777828 C31.696342,32.971628 34.919242,29.905328 37.006442,28.952428 C39.093742,27.999428 43.044342,26.958728 46.643042,27.493028 C48.619542,27.729128 50.546442,28.274028 52.352942,29.107928 C52.656842,29.239528 54.308242,29.614328 54.096342,30.391828 C54.096342,30.391828 53.968342,30.615128 53.348642,30.666928 C53.348642,30.666928 35.151142,44.056328 31.444442,41.951028 C31.203542,41.879528 30.989442,41.738228 30.829242,41.545128 C30.669042,41.352028 30.570042,41.115828 30.544842,40.866428 Z" id="Path" fill="#00ADA8"></path>
            <path d="M51.533142,30.210828 C44.714442,30.690528 38.229042,33.335728 33.027842,37.758728 C32.333342,38.316828 31.715042,38.962928 31.188442,39.680628 C30.914542,40.135428 30.714842,40.630728 30.596642,41.147928 C30.670242,41.336428 30.785242,41.505928 30.933442,41.643928 C31.081542,41.781928 31.258942,41.885028 31.452342,41.945428 C35.159042,44.050728 53.356542,30.661428 53.356542,30.661428 C53.976242,30.609528 54.104242,30.386228 54.104242,30.386228 C54.108142,30.362528 54.108142,30.338228 54.104242,30.314528 C53.256742,30.155728 52.390642,30.120828 51.533142,30.210828 Z" id="Path" fill="#CDEBFC"></path>
            <path d="M31.400742,51.579728 C31.400742,51.579728 31.176842,49.586128 29.977242,48.389928 C28.777742,47.193728 26.974342,46.795028 25.139042,46.695328 C23.782242,46.698428 22.439642,46.969528 21.188442,47.492728 C19.837842,48.119428 18.584142,48.935828 17.465742,49.917028 C16.981942,50.347728 16.390142,50.981628 16.666042,51.340528 C16.816442,51.381128 16.975742,51.374128 17.121942,51.320628 C18.997242,51.077328 22.208042,52.556628 23.835542,52.783928 C23.835542,52.783928 30.377142,54.279128 31.164842,52.361228 C31.278242,52.269628 31.361342,52.146128 31.403442,52.006728 C31.445542,51.867328 31.444542,51.718628 31.400742,51.579728 Z" id="Path" fill="#C9EBFC"></path>
            <path d="M31.209042,52.352928 C31.319542,52.260928 31.400142,52.138328 31.440642,52.000628 C31.481242,51.863028 31.479942,51.716428 31.437042,51.579428 C30.810142,51.134128 30.140442,50.752128 29.437742,50.439028 C25.524142,49.036728 21.231942,49.106228 17.366042,50.634428 C17.079142,50.756728 16.832442,50.957128 16.654342,51.212628 C16.665442,51.255528 16.684442,51.296128 16.710242,51.332228 C16.860642,51.372828 17.019942,51.365828 17.166142,51.312328 C19.041442,51.069028 22.252242,52.548328 23.879742,52.775628 C23.879742,52.775628 30.421342,54.270828 31.209042,52.352928 Z" id="Path" fill="#00ADA8"></path>
        </g>
    </g>
</svg>